<svg xmlns="http://www.w3.org/2000/svg" viewBox="0 0 100 32" width="100" height="32">
  <rect width="100" height="32" fill="#1A1F71"/>
  <path d="M24.15 9.62l-3.34 13.68h-2.98L21.17 9.62h2.98zm12.02 3.22c-.06-1.35-1.2-2.43-3.05-2.43-1.17 0-2.15.46-2.8 1.2l-.16-.99h-2.63c.03.29.52 3.18.52 3.18h1.58c.16-.72.61-1.24 1.2-1.24.83 0 1.17.63 1.17 1.4 0 1.33-2.29 1.77-2.29 3.54 0 1.08.9 1.81 2.06 1.81.98 0 1.65-.19 2.23-.55l.3 1.04h2.34c-.1-.32-.64-3.2-.76-3.99zm-2.4 3.34c-.4 0-.66-.2-.66-.5 0-.92 2.19-.94 2.19-1.94 0-.25-.2-.5-.56-.5-.44 0-.88.3-1.19.7-.06.07-.12.12-.14.18v1.06c0 .07.02.13.02.2-.02 0-.02 0-.02 0zm9.5-6.56c-.72 0-1.37.3-1.69.83l-.1.17-.07-.16h-2.37l.48 2.33h.02l.96-2.33h2.06zm6.7 6.56h-2.29l-1.45-8.97h2.32l.43 2.35c.36-.68 1.07-1.08 2.04-1.08.22 0 .43.02.65.06.17.03.33.06.5.1l.14.03.1.03c.03 0 .07.01.09.01.05.01.08.01.12.02.01.01.02.01.02.01.02.01.04.02.05.02h.09l.01.01c.04.01.08.02.11.03.02.01.05.02.07.03l.01.01.04.02c.02.01.03.01.05.02.06.03.11.05.17.08.05.03.1.05.14.07.02.01.05.02.07.03.03.01.05.02.07.03.07.04.13.07.2.11.1.06.19.13.27.19l.02.01c.03.02.05.03.07.04.08.05.15.11.23.17.08.06.16.12.23.19.09.07.18.15.27.22h.01c.02.02.04.03.06.05.09.08.18.16.26.25.06.06.12.12.18.19.05.05.1.1.15.16.01.01.01.01.02.02l.01.01c.02.03.04.06.07.09l.1.1c.07.08.14.16.2.24.04.05.07.09.11.14.04.04.07.08.1.12.07.1.13.2.2.3.07.11.14.22.2.33.01.02.03.05.04.07l.01.01c.04.07.08.14.11.22.08.14.15.28.22.42.05.1.1.19.15.29.01.03.03.05.04.08.05.08.1.16.15.25.04.06.08.12.12.19l.08.14.12.18.09.14.03.05c.03.05.05.09.08.14.01.03.03.05.04.08.02.03.03.06.05.09l.02.03c.01.01.02.03.03.04l.02.04c.01.01.01.03.02.04l.01.02c.03.05.07.1.1.14h-2.41c-.2 0-.4-.04-.58-.13-.09-.04-.18-.1-.26-.17-.03-.02-.05-.04-.08-.06-.06-.05-.11-.1-.17-.16l-.06-.06c-.06-.07-.12-.13-.17-.21l-.03-.05-.04-.07c-.03-.05-.06-.1-.08-.15-.02-.03-.04-.06-.06-.09-.05-.1-.1-.2-.15-.3-.04-.1-.08-.2-.11-.3-.02-.05-.04-.1-.05-.14-.05-.12-.08-.24-.12-.36-.02-.06-.04-.12-.06-.18-.04-.1-.07-.2-.09-.31-.02-.07-.04-.14-.06-.21-.01-.02-.01-.03-.02-.05-.01-.02-.02-.04-.03-.06v-.03l-.01-.03-.01-.03-.01-.04-.01-.04v-.03l-.01-.03-.01-.04-.01-.05-.01-.05v-.01-.02-.01-.02c-.01-.03-.01-.06-.02-.09l-.01-.07V9.02z" fill="#F9A825"/>
</svg>
